{
	"asset":{
		"generator":"Khronos glTF Blender I/O v3.5.30",
		"version":"2.0"
	},
	"scene":0,
	"scenes":[
		{
			"name":"Scene",
			"nodes":[
				0
			]
		}
	],
	"nodes":[
		{
			"extras":{
				"ant_landscape":{
					"ant_terrain_name":"Landscape",
					"at_cursor":1,
					"smooth_mesh":1,
					"tri_face":0,
					"sphere_mesh":0,
					"land_material":"",
					"water_material":"",
					"texture_block":"",
					"subdivision_x":64,
					"subdivision_y":64,
					"mesh_size_x":100.0,
					"mesh_size_y":100.0,
					"mesh_size":2.0,
					"random_seed":0,
					"noise_offset_x":0.0,
					"noise_offset_y":0.0,
					"noise_offset_z":0.0,
					"noise_size_x":1.0,
					"noise_size_y":1.0,
					"noise_size_z":1.0,
					"noise_size":32.0,
					"noise_type":3,
					"basis_type":0,
					"vl_basis_type":0,
					"distortion":1.0,
					"hard_noise":0,
					"noise_depth":8,
					"amplitude":0.5,
					"frequency":2.0,
					"dimension":1.0,
					"lacunarity":2.0,
					"offset":1.0,
					"gain":1.0,
					"marble_bias":0,
					"marble_sharp":0,
					"marble_shape":0,
					"height":4.0,
					"height_invert":0,
					"height_offset":0.0,
					"maximum":4.0,
					"minimum":-1.0,
					"edge_falloff":3,
					"edge_level":0.0,
					"falloff_x":4.0,
					"falloff_y":4.0,
					"strata_type":0,
					"strata":5.0,
					"water_plane":0,
					"water_level":0.009999999776482582,
					"vert_group":"",
					"remove_double":0,
					"fx_mixfactor":0.0,
					"fx_mix_mode":0,
					"fx_type":0,
					"fx_bias":0,
					"fx_turb":0.0,
					"fx_depth":0,
					"fx_frequency":2.0,
					"fx_amplitude":0.5,
					"fx_size":1.0,
					"fx_loc_x":0.0,
					"fx_loc_y":0.0,
					"fx_height":1.0,
					"fx_offset":0.0,
					"fx_invert":0
				}
			},
			"mesh":0,
			"name":"Landscape"
		}
	],
	"meshes":[
		{
			"name":"Landscape",
			"primitives":[
				{
					"attributes":{
						"POSITION":0,
						"NORMAL":1
					},
					"indices":2
				}
			]
		}
	],
	"accessors":[
		{
			"bufferView":0,
			"componentType":5126,
			"count":4096,
			"max":[
				50,
				4,
				50
			],
			"min":[
				-50,
				0,
				-50
			],
			"type":"VEC3"
		},
		{
			"bufferView":1,
			"componentType":5126,
			"count":4096,
			"type":"VEC3"
		},
		{
			"bufferView":2,
			"componentType":5123,
			"count":23814,
			"type":"SCALAR"
		}
	],
	"bufferViews":[
		{
			"buffer":0,
			"byteLength":49152,
			"byteOffset":0,
			"target":34962
		},
		{
			"buffer":0,
			"byteLength":49152,
			"byteOffset":49152,
			"target":34962
		},
		{
			"buffer":0,
			"byteLength":47628,
			"byteOffset":98304,
			"target":34963
		}
	],
	"buffers":[
		{
			"byteLength":145932,
			"uri":"simple_terrain-40bb76cef2133d4e31d43d576f31ae90.bin"
		}
	]
}
