# Blender v3.4.1 OBJ File: 'ladder.blend'
# www.blender.org
mtllib ladder.mtl
o Ladder_mesh
v 0.275000 2.000000 -0.025000
v 0.275000 0.000000 -0.025000
v 0.275000 2.000000 0.025000
v 0.275000 0.000000 0.025000
v 0.225000 2.000000 -0.025000
v 0.225000 0.000000 -0.025000
v 0.225000 2.000000 0.025000
v 0.225000 0.000000 0.025000
v -0.225000 2.000000 -0.025000
v -0.225000 0.000000 -0.025000
v -0.225000 2.000000 0.025000
v -0.225000 0.000000 0.025000
v -0.275000 2.000000 -0.025000
v -0.275000 0.000000 -0.025000
v -0.275000 2.000000 0.025000
v -0.275000 0.000000 0.025000
v 0.250000 0.050000 -0.025000
v 0.250000 0.000000 -0.025000
v 0.250000 0.050000 0.025000
v 0.250000 0.000000 0.025000
v -0.250000 0.050000 -0.025000
v -0.250000 0.000000 -0.025000
v -0.250000 0.050000 0.025000
v -0.250000 0.000000 0.025000
v 0.250000 0.300000 -0.025000
v 0.250000 0.250000 -0.025000
v 0.250000 0.300000 0.025000
v 0.250000 0.250000 0.025000
v -0.250000 0.300000 -0.025000
v -0.250000 0.250000 -0.025000
v -0.250000 0.300000 0.025000
v -0.250000 0.250000 0.025000
v 0.250000 0.600000 -0.025000
v 0.250000 0.550000 -0.025000
v 0.250000 0.600000 0.025000
v 0.250000 0.550000 0.025000
v -0.250000 0.600000 -0.025000
v -0.250000 0.550000 -0.025000
v -0.250000 0.600000 0.025000
v -0.250000 0.550000 0.025000
v 0.250000 0.899999 -0.025000
v 0.250000 0.849999 -0.025000
v 0.250000 0.899999 0.025000
v 0.250000 0.849999 0.025000
v -0.250000 0.899999 -0.025000
v -0.250000 0.849999 -0.025000
v -0.250000 0.899999 0.025000
v -0.250000 0.849999 0.025000
v 0.250000 1.199999 -0.025000
v 0.250000 1.149999 -0.025000
v 0.250000 1.199999 0.025000
v 0.250000 1.149999 0.025000
v -0.250000 1.199999 -0.025000
v -0.250000 1.149999 -0.025000
v -0.250000 1.199999 0.025000
v -0.250000 1.149999 0.025000
v 0.250000 1.499999 -0.025000
v 0.250000 1.449999 -0.025000
v 0.250000 1.499999 0.025000
v 0.250000 1.449999 0.025000
v -0.250000 1.499999 -0.025000
v -0.250000 1.449999 -0.025000
v -0.250000 1.499999 0.025000
v -0.250000 1.449999 0.025000
v 0.250000 1.799999 -0.025000
v 0.250000 1.749999 -0.025000
v 0.250000 1.799999 0.025000
v 0.250000 1.749999 0.025000
v -0.250000 1.799999 -0.025000
v -0.250000 1.749999 -0.025000
v -0.250000 1.799999 0.025000
v -0.250000 1.749999 0.025000
vt 0.625000 0.500000
vt 0.875000 0.500000
vt 0.875000 0.750000
vt 0.625000 0.750000
vt 0.375000 0.750000
vt 0.625000 1.000000
vt 0.375000 1.000000
vt 0.375000 0.000000
vt 0.625000 0.000000
vt 0.625000 0.250000
vt 0.375000 0.250000
vt 0.125000 0.500000
vt 0.375000 0.500000
vt 0.125000 0.750000
vt 0.625000 0.500000
vt 0.875000 0.500000
vt 0.875000 0.750000
vt 0.625000 0.750000
vt 0.375000 0.750000
vt 0.625000 1.000000
vt 0.375000 1.000000
vt 0.375000 0.000000
vt 0.625000 0.000000
vt 0.625000 0.250000
vt 0.375000 0.250000
vt 0.125000 0.500000
vt 0.375000 0.500000
vt 0.125000 0.750000
vt 0.375000 0.000000
vt 0.625000 0.000000
vt 0.625000 0.250000
vt 0.375000 0.250000
vt 0.375000 0.500000
vt 0.625000 0.500000
vt 0.625000 0.750000
vt 0.375000 0.750000
vt 0.625000 0.500000
vt 0.875000 0.500000
vt 0.875000 0.750000
vt 0.625000 0.750000
vt 0.375000 0.750000
vt 0.625000 1.000000
vt 0.375000 1.000000
vt 0.125000 0.500000
vt 0.375000 0.500000
vt 0.125000 0.750000
vt 0.375000 0.250000
vt 0.625000 0.250000
vt 0.625000 0.500000
vt 0.875000 0.500000
vt 0.875000 0.750000
vt 0.625000 0.750000
vt 0.375000 0.750000
vt 0.625000 1.000000
vt 0.375000 1.000000
vt 0.125000 0.500000
vt 0.375000 0.500000
vt 0.125000 0.750000
vt 0.375000 0.250000
vt 0.625000 0.250000
vt 0.625000 0.500000
vt 0.875000 0.500000
vt 0.875000 0.750000
vt 0.625000 0.750000
vt 0.375000 0.750000
vt 0.625000 1.000000
vt 0.375000 1.000000
vt 0.125000 0.500000
vt 0.375000 0.500000
vt 0.125000 0.750000
vt 0.375000 0.250000
vt 0.625000 0.250000
vt 0.625000 0.500000
vt 0.875000 0.500000
vt 0.875000 0.750000
vt 0.625000 0.750000
vt 0.375000 0.750000
vt 0.625000 1.000000
vt 0.375000 1.000000
vt 0.125000 0.500000
vt 0.375000 0.500000
vt 0.125000 0.750000
vt 0.375000 0.250000
vt 0.625000 0.250000
vt 0.625000 0.500000
vt 0.875000 0.500000
vt 0.875000 0.750000
vt 0.625000 0.750000
vt 0.375000 0.750000
vt 0.625000 1.000000
vt 0.375000 1.000000
vt 0.125000 0.500000
vt 0.375000 0.500000
vt 0.125000 0.750000
vt 0.375000 0.250000
vt 0.625000 0.250000
vt 0.625000 0.500000
vt 0.875000 0.500000
vt 0.875000 0.750000
vt 0.625000 0.750000
vt 0.375000 0.750000
vt 0.625000 1.000000
vt 0.375000 1.000000
vt 0.125000 0.500000
vt 0.375000 0.500000
vt 0.125000 0.750000
vt 0.375000 0.250000
vt 0.625000 0.250000
vn 0.0000 1.0000 0.0000
vn 0.0000 0.0000 1.0000
vn -1.0000 0.0000 0.0000
vn 0.0000 -1.0000 0.0000
vn 1.0000 0.0000 0.0000
vn 0.0000 0.0000 -1.0000
usemtl Material
s off
f 1/1/1 5/2/1 7/3/1 3/4/1
f 4/5/2 3/4/2 7/6/2 8/7/2
f 8/8/3 7/9/3 5/10/3 6/11/3
f 6/12/4 2/13/4 4/5/4 8/14/4
f 2/13/5 1/1/5 3/4/5 4/5/5
f 6/11/6 5/10/6 1/1/6 2/13/6
f 9/15/1 13/16/1 15/17/1 11/18/1
f 12/19/2 11/18/2 15/20/2 16/21/2
f 16/22/3 15/23/3 13/24/3 14/25/3
f 14/26/4 10/27/4 12/19/4 16/28/4
f 10/27/5 9/15/5 11/18/5 12/19/5
f 14/25/6 13/24/6 9/15/6 10/27/6
f 24/29/3 23/30/3 21/31/3 22/32/3
f 18/33/5 17/34/5 19/35/5 20/36/5
f 25/37/1 29/38/1 31/39/1 27/40/1
f 28/41/2 27/40/2 31/42/2 32/43/2
f 30/44/4 26/45/4 28/41/4 32/46/4
f 30/47/6 29/48/6 25/37/6 26/45/6
f 33/49/1 37/50/1 39/51/1 35/52/1
f 36/53/2 35/52/2 39/54/2 40/55/2
f 38/56/4 34/57/4 36/53/4 40/58/4
f 38/59/6 37/60/6 33/49/6 34/57/6
f 41/61/1 45/62/1 47/63/1 43/64/1
f 44/65/2 43/64/2 47/66/2 48/67/2
f 46/68/4 42/69/4 44/65/4 48/70/4
f 46/71/6 45/72/6 41/61/6 42/69/6
f 49/73/1 53/74/1 55/75/1 51/76/1
f 52/77/2 51/76/2 55/78/2 56/79/2
f 54/80/4 50/81/4 52/77/4 56/82/4
f 54/83/6 53/84/6 49/73/6 50/81/6
f 57/85/1 61/86/1 63/87/1 59/88/1
f 60/89/2 59/88/2 63/90/2 64/91/2
f 62/92/4 58/93/4 60/89/4 64/94/4
f 62/95/6 61/96/6 57/85/6 58/93/6
f 65/97/1 69/98/1 71/99/1 67/100/1
f 68/101/2 67/100/2 71/102/2 72/103/2
f 70/104/4 66/105/4 68/101/4 72/106/4
f 70/107/6 69/108/6 65/97/6 66/105/6
